<?xml version="1.0" standalone="no"?>
<!DOCTYPE svg PUBLIC "-//W3C//DTD SVG 20010904//EN"
 "http://www.w3.org/TR/2001/REC-SVG-20010904/DTD/svg10.dtd">
<svg version="1.0" xmlns="http://www.w3.org/2000/svg"
 width="511.995816pt" height="481.908582pt" viewBox="0 0 511.995816 481.908582"
 preserveAspectRatio="xMidYMid meet">
<metadata>
Created by Potrace Professional 1.1m
</metadata>
<g transform="translate(-0.000000,496.939991) rotate(-360.00) scale(0.095238,-0.095238)"
fill="#000000" stroke="none">
<path d="M383 5204 c-69 -31 -120 -107 -120 -180 0 -70 28 -111 179 -263 l147
-148 -91 -88 c-164 -160 -292 -358 -355 -550 -80 -239 -143 -790 -143 -1240 0
-462 65 -1015 148 -1252 140 -399 496 -745 906 -879 163 -53 445 -91 994 -134
231 -17 1041 -17 1281 0 272 21 585 53 744 77 157 24 270 56 393 112 l81 37
260 -257 c280 -279 294 -288 391 -279 128 12 209 143 164 263 -20 52 -164 196
-2900 2900 -537 531 -1176 1164 -1420 1407 -257 256 -462 451 -487 465 -50 27
-122 31 -172 9z m839 -1216 l115 -110 -58 -33 c-184 -106 -276 -319 -224 -520
23 -86 53 -140 117 -207 189 -198 491 -194 676 8 28 30 59 74 70 97 11 23 22
42 26 42 4 0 189 -180 412 -400 l406 -400 -34 -44 c-135 -175 -421 -559 -426
-570 -2 -7 -8 -13 -12 -13 -4 0 -50 53 -101 118 -176 221 -331 394 -383 428
-85 54 -153 75 -263 81 -197 10 -320 -40 -448 -185 -118 -131 -296 -350 -436
-534 -116 -153 -121 -158 -132 -133 -28 60 -84 402 -109 660 -17 178 -17 749
0 924 18 187 61 475 86 583 41 169 138 328 289 472 l81 76 117 -114 c64 -64
168 -165 231 -226z"/>
<path d="M2174 5008 c-306 -18 -767 -61 -767 -72 0 -4 80 -86 178 -184 l177
-177 156 12 c562 45 1018 43 1600 -4 424 -35 643 -72 770 -130 238 -108 453
-327 547 -560 45 -109 93 -386 123 -696 25 -269 11 -980 -21 -1103 -7 -25 -12
-20 -76 66 -202 273 -621 775 -709 851 -190 163 -534 198 -788 82 -31 -14 -56
-30 -56 -35 0 -18 1805 -1800 1816 -1793 17 11 68 117 103 216 17 50 44 156
59 237 101 544 118 1159 47 1726 -44 349 -89 538 -169 698 -88 177 -267 387
-438 515 -102 77 -275 169 -392 209 -145 49 -440 90 -911 128 -240 19 -1021
28 -1249 14z"/>
</g>
</svg>
