<?xml version="1.0" standalone="no"?>
<!DOCTYPE svg PUBLIC "-//W3C//DTD SVG 20010904//EN"
 "http://www.w3.org/TR/2001/REC-SVG-20010904/DTD/svg10.dtd">
<svg version="1.0" xmlns="http://www.w3.org/2000/svg"
 width="445.333719pt" height="511.667827pt" viewBox="0 0 445.333719 511.667827"
 preserveAspectRatio="xMidYMid meet">
<metadata>
Created by Potrace Professional 1.1m
</metadata>
<g transform="translate(-33.023163,511.844713) rotate(-360.00) scale(0.095238,-0.095238)"
fill="#000000" stroke="none">
<path d="M3995 5364 c-340 -63 -616 -319 -704 -655 -30 -112 -27 -328 5 -444
14 -48 22 -89 20 -92 -3 -2 -326 -203 -718 -446 -442 -274 -718 -439 -725
-433 -6 4 -44 36 -84 69 -84 72 -248 155 -354 181 -306 73 -627 -22 -846 -252
-323 -341 -323 -867 0 -1208 219 -230 540 -325 846 -252 106 26 270 109 354
181 40 33 78 65 84 69 7 6 283 -159 725 -433 392 -243 715 -444 718 -446 2 -3
-6 -44 -20 -92 -32 -114 -35 -334 -7 -438 49 -178 109 -280 239 -410 171 -172
339 -247 578 -260 416 -22 783 251 893 664 27 100 32 291 11 388 -76 344 -347
615 -689 689 -99 21 -289 16 -389 -10 -148 -40 -316 -135 -407 -230 l-30 -31
-724 447 c-539 334 -722 452 -717 464 3 8 15 51 27 94 39 143 26 372 -27 515
-5 11 178 129 717 463 l724 447 30 -31 c91 -95 259 -190 407 -230 100 -26 290
-31 389 -10 342 74 613 345 689 689 21 97 16 288 -11 388 -90 338 -355 588
-692 652 -86 17 -231 18 -312 3z m293 -330 c276 -71 454 -348 406 -633 -50
-292 -344 -504 -631 -455 -385 66 -584 464 -408 813 64 125 204 236 348 275
75 20 206 20 285 0z m-2928 -1806 c98 -25 170 -65 247 -137 235 -222 236 -584
1 -805 -178 -167 -410 -201 -631 -93 -338 164 -410 620 -141 890 134 135 341
192 524 145z m2904 -1805 c104 -22 193 -71 274 -153 350 -349 102 -944 -392
-945 -308 0 -555 247 -555 555 0 357 323 618 673 543z"/>
</g>
</svg>
